<svg viewBox="0 0 64 64" fill="none" xmlns="http://www.w3.org/2000/svg">
  <!-- Background -->
  <rect width="64" height="64" fill="#1e3a8a"/>
  
  <!-- House -->
  <path
    d="M16 32 L32 16 L48 32 V48 H16 Z"
    fill="none"
    stroke="#3b82f6"
    strokeWidth="2.5"
    strokeLinecap="round"
    strokeLinejoin="round"
  />
  
  <!-- Roof bar -->
  <path
    d="M20 40 H44"
    stroke="#f97316"
    strokeWidth="4"
    strokeLinecap="round"
  />
  
  <!-- Location pin -->
  <circle cx="50" cy="18" r="4" fill="#3b82f6" />
  <path
    d="M50 22 Q52 24 50 26 Q48 24 50 22"
    fill="#3b82f6"
  />
  
  <!-- Tools - Wrench -->
  <g transform="translate(28, 30)">
    <path
      d="M 2 8 Q 4 6 6 4 M 6 4 Q 8 2 10 0 M 10 0 L 12 2 Q 8 6 6 8"
      stroke="#0f766e"
      strokeWidth="2"
      strokeLinecap="round"
      strokeLinejoin="round"
    />
    <circle cx="4" cy="8" r="1.5" fill="#0f766e" />
  </g>
  
  <!-- Plus sign -->
  <g transform="translate(30, 18)">
    <line x1="0" y1="-2" x2="0" y2="2" stroke="#3b82f6" strokeWidth="1.5" strokeLinecap="round" />
    <line x1="-2" y1="0" x2="2" y2="0" stroke="#3b82f6" strokeWidth="1.5" strokeLinecap="round" />
  </g>
</svg>
